Patient4_TMGait_0pt6_02_right_41_EMG.mot
version=1
nRows=30
nColumns=33
inDegrees=no
endheader
time	1LAddLong	2LGlutMax	3LGlutMed	4LIliopsoas	5LSemiMemb	6LBicFemLong	7LRecFem	8LVastMed	9LVastLat	10LGasMed	11LTibAnt	12lTibPost	13LPeroneusLong	14LSol	15LExtDigLong	16LFlexDigLong	17RAddLong	18RGlutMax	19RGlutMed	20RIliopsoas	21RSemiMemb	22RBicFemLong	23RRecFem	24RVastMed	25RVastLat	26RGasMed	27RTibAnt	28RTibPost	29RPeroneusLong	30RSol	31RExtDigLong	32RFlexDigLong
49.89	-0.001373	0.30868	0.35767	0	-0.017853	-0.022888	0.13443	0.015259	0.18158	0.023193	0.38162	-0.014343	-0.18799	0.10574	0.15778	0.010834	-0.045013	-1.4531	-0.59647	0.09079	-0.15717	-0.4509	0.28915	0.1239	0.35126	-0.065308	-0.063324	0.16495	0.11231	0.57312	0.00061	-0.007935
49.891	0.002441	0.35049	0.30991	-0.038452	0.001068	-0.017853	0.1564	-0.028687	0.19501	0.019684	0.36728	-0.00824	-0.19775	0.18967	-0.26962	-0.006104	0.002747	-1.1929	-1.0052	-0.04364	-0.27405	-0.49179	0.37537	0.009918	0.18249	-0.090332	-0.04364	0.19501	0.34698	0.071564	-0.001831	-0.014191
49.892	0.000153	0.40787	0.31326	-0.035095	0.011139	-0.014343	0.1535	-0.032349	0.20264	0.023956	0.31738	-0.011139	-0.16556	0.16235	-0.57205	-0.005493	0.032501	-1.1345	-0.77789	-0.12802	-0.35614	-0.33463	0.45441	-0.025787	0.091705	-0.033569	-0.016174	0.14023	0.3894	0.4895	-0.001831	-0.011597
49.893	-0.013123	0.43915	0.29953	-0.003815	0.006409	-0.018616	0.17471	-0.010376	0.22064	0.046692	0.011292	0.001068	-0.17197	0.23682	0.14679	-0.005188	0.017395	-1.2807	-0.075531	-0.17319	-0.46036	-0.056915	0.44769	-0.013733	0.064697	0.007477	-0.05661	0.20065	0.30655	0.21347	-0.001526	-0.001221
49.894	-0.019684	0.44479	0.2742	0.029755	0.002594	0.014801	0.17792	0.00412	0.2417	0.049438	-0.29144	-0.000458	-0.19638	0.17914	0.53238	0.004883	-0.032196	-1.3251	-0.069733	-0.09613	-0.30258	0.037384	0.35233	0.072327	0.10925	0.022583	-0.004883	-0.10849	0.21316	0.74493	-0.002136	0.000458
49.895	-0.012054	0.49439	0.25604	0.025024	-0.002289	0.011139	0.16937	-0.012054	0.26779	0.004883	-0.16159	0.009918	-0.045624	0.13046	0.25116	0.020447	-0.046234	-1.4157	-0.40009	-0.011292	0.3421	-0.11688	0.30212	0.1265	0.09552	0.018005	-0.003967	0.18921	0.021362	0.4483	-0.000458	-0.014801
49.896	-0.019989	0.50736	0.25726	-0.003357	-0.005341	-0.041809	0.19348	-0.001068	0.31342	-0.026855	-0.21423	0.004272	0.083771	0.07843	-0.63416	0.014954	-0.003052	-1.6455	-0.54947	-0.004883	0.19318	-0.14801	0.30777	0.11032	0.077362	0.015717	0.033112	0.14481	0.006256	0.05722	0.005951	-0.014343
49.897	-0.020294	0.56519	0.23529	0.025787	0.012665	-0.065765	0.18982	-0.000458	0.31311	-0.002594	-0.32272	0.010681	0.05249	-0.029907	-0.49072	-0.00412	0.025024	-1.7284	-0.57602	-0.03006	-0.083771	-0.15549	0.26962	-0.041962	0.042114	0.023193	0.023346	-0.11047	-0.009918	0.072632	-0.001221	0.000458
49.898	-0.014648	0.56488	0.2153	-0.008392	-0.001831	-0.041046	0.18967	-0.010529	0.29434	0.036621	-0.39368	0.007324	-0.044403	-0.17593	-0.37109	0.000763	0.059814	-1.6866	-0.4895	-0.040131	-0.1474	-0.31464	0.21027	-0.097656	-0.024109	0.013733	0.00351	-0.11353	-0.014648	-0.36102	0.001831	0.001068
49.899	-0.015869	0.58716	0.19318	-0.024719	-0.016327	-0.066986	0.20294	0.003204	0.25497	0.04837	-0.32394	0.00885	-0.12482	-0.17151	0.080719	-0.010681	0.02655	-1.7369	-0.7016	-0.087433	-0.027466	-0.35584	0.17319	0.054016	0.016174	0.005188	0.01236	-0.11063	-0.075226	-0.79895	0	-0.002289
49.9	-0.010376	0.56549	0.18463	-0.007324	-0.000916	-0.13992	0.19745	-0.009918	0.23377	0.019531	-0.19913	0.011902	-0.10422	-0.039063	0.092621	-0.007172	-0.018005	-1.736	-1.1314	-0.074768	0.18494	-0.53421	0.14435	0.12024	0.000153	-0.015106	0.028839	0.1387	-0.080719	-0.4953	-0.001984	-0.001678
49.901	-0.019073	0.5484	0.15152	-0.021057	0.025024	-0.177	0.17578	-0.007172	0.23438	-0.041504	0.023804	0.015411	-0.058746	0.17395	0.046692	0.014954	-0.029144	-1.6144	-1.7628	-0.092316	0.049133	-0.76508	0.13825	-0.009155	-0.02594	0.013275	0.036774	-0.09552	-0.063324	0.29999	0.001526	-0.00946
49.902	-0.015717	0.51315	0.10666	-0.01358	0.069122	-0.16022	0.18692	-0.011444	0.21255	-0.080109	0.28641	0.010223	-0.063171	0.27481	-0.18295	0.016937	-0.054016	-1.333	-1.5767	-0.039673	-0.12009	-0.58472	0.10346	0.005188	-0.031586	-0.006409	0.051575	0.001526	-0.20905	-0.16373	0.001373	-0.006409
49.903	-0.028076	0.4631	0.072021	0.014191	0.077362	-0.034485	0.20783	-0.02121	0.19486	-0.072937	0.045776	0.00351	-0.040436	0.28839	-0.48309	0.01358	-0.055084	-1.1203	-0.67658	-0.00351	-0.046997	-0.42252	0.23712	0.061951	-0.071869	-0.065918	0.076752	0.029144	-0.27313	0.032501	0.00061	-0.019684
49.904	-0.044403	0.46463	0.074768	0.039063	0.039825	0.036926	0.21668	-0.008087	0.1712	-0.052032	-0.24536	0.009613	0.036163	0.23605	-0.58945	0.030823	-0.019684	-0.82809	-0.99258	-0.064392	0.13794	-0.38238	0.36377	0.002136	-0.16129	-0.069427	0.083923	0.14572	-0.18036	0.14832	-0.002136	-0.012207
49.905	-0.039825	0.44937	0.041656	0.032043	0.015869	0.036469	0.20416	-0.001526	0.1683	-0.016174	-0.077972	0.006866	-0.08606	0.1033	-0.49805	0.018921	0.022888	-0.63202	-0.29312	-0.13596	0.19196	-0.48645	0.43778	0.016479	-0.18204	-0.11108	0.095978	0.015564	-0.10757	0.10696	0.000153	-0.005798
49.906	-0.033264	0.49927	0.025635	0.02655	-0.001984	0.027618	0.20538	-0.006714	0.15732	0.021515	-0.15045	0.007629	-0.14816	-0.050659	-0.066833	0.00946	0.016479	-0.26321	0.13184	-0.22018	0.068817	-0.58899	0.52109	0.12894	-0.20721	-0.14908	0.11368	-0.051575	-0.015106	-0.24872	0.001373	-0.001831
49.907	-0.026093	0.49027	0.018463	0.052032	-0.005493	0.035095	0.20966	-0.006104	0.16144	0.015259	-0.35599	0.00885	-0.10407	-0.17502	0.58166	0.000305	-0.016327	-0.001831	-0.89829	-0.29526	0.018311	-0.43655	0.60699	0.15213	-0.25681	0.009766	0.093231	0.11002	0.068359	-0.43335	0.000763	-0.007477
49.908	-0.003052	0.50003	0.012054	0.051727	-0.01236	0.007629	0.22201	-0.011749	0.14145	0.018768	-0.3006	0.001373	-0.14114	-0.31372	-0.064697	-0.011444	-0.014038	-0.000458	-0.91354	-0.18845	0.14084	-0.07843	0.55969	0.002594	-0.24246	0.1033	0.06546	0.05661	-0.027313	-0.23117	0	-0.019836
49.909	0.005951	0.53879	0.000153	0.005798	0.012817	-0.009308	0.22812	-0.008545	0.11169	0.044098	-0.15915	0.008698	-0.17471	-0.34805	-0.41107	-0.006866	0.009766	-0.017242	-0.055542	0.088959	0.20371	0.059357	0.15243	-0.006561	-0.064545	0.093994	0.049744	-0.008698	-0.25681	-0.69885	-0.004578	-0.014038
49.91	0.013275	0.52017	0.025787	-0.025482	0.020294	-0.064545	0.21835	-0.003052	0.097961	-0.011749	0.019836	0.002899	-0.069885	-0.32105	-0.53451	0.005035	0.023956	0.014343	1.2088	-0.051575	0.17487	-0.046387	-0.15366	0.10605	0.18509	0.038147	0.13062	0.027924	-0.73105	-0.81787	0.000763	-0.021515
49.911	0.028992	0.51285	0.028534	-0.057983	0.011597	-0.091553	0.18585	-0.007629	0.079956	-0.018158	0.25497	0.011597	-0.031128	-0.18372	-0.2684	0.003967	0.026703	0.050201	1.3116	-0.10483	0.27756	-0.19241	-0.12299	0.23682	0.41626	-0.026093	0.25238	0.042725	-0.4306	-1.1398	-0.001068	-0.021057
49.912	0.024719	0.49469	0.016174	-0.027924	0.014343	-0.13382	0.20905	-0.007324	0.073395	0.010986	0.22736	0.002441	-0.075836	-0.14496	0.73547	0.011292	-0.009918	0.20065	-0.60867	-0.020599	0.11749	-0.40298	-0.078583	0.23041	0.63568	0.000153	0.42175	-0.32761	0.14618	-0.80292	-0.001984	-0.023804
49.913	0.027924	0.5011	0.000763	0.035248	0.018768	-0.14786	0.1532	-0.011139	0.041656	0.004272	-0.06424	0.010681	-0.075073	-0.10529	0.72662	0.007782	0.009918	0.48828	-0.84549	0.071411	-0.16769	-0.44495	-0.076294	0.24185	0.51315	0.005951	0.40588	-0.35492	-0.054779	-0.28564	0.000916	-0.015869
49.914	0.025482	0.51727	-0.041504	0.011902	0.032806	-0.10574	0.14816	-0.011139	0.028839	-0.007935	-0.019684	0.005035	-0.061798	-0.067139	0.31097	0.006409	-0.003357	0.69733	-0.66711	0.09201	-0.19531	-0.37888	-0.18814	0.2063	0.37933	-0.005798	0.2742	0.13214	-0.16922	0.19547	0.000153	-0.019226
49.915	0.012512	0.59448	0.012512	-0.055237	0.056763	-0.098572	0.16525	-0.006714	0.027924	0.013733	0.28366	0.003357	-0.11643	0.027618	0.65399	0.021667	-0.014954	0.88043	-0.31357	0.066986	-0.15732	-0.62164	-0.28427	0.29068	0.29159	-0.032654	-0.001831	0.073242	-0.38528	0.52704	0.000305	-0.014801
49.916	0.001984	0.59677	0.010681	-0.10056	0.055084	-0.019684	0.17929	-0.015564	0.032501	0.024719	0.24307	0.002136	-0.13825	0.080566	0.61523	0.001831	-0.018005	0.98053	-0.39276	0.078735	-0.16388	-0.74509	-0.19653	0.24414	0.14694	-0.078888	-0.35568	0.016327	-0.052185	0.1767	-0.003357	-0.013123
49.917	0.009003	0.59158	0.036621	-0.055847	0.037994	-0.017548	0.16251	-0.011749	0.020142	0.019989	0.27039	0.008087	-0.15961	0.070038	-0.048523	0.00351	0.009613	1.2369	0.16251	0.10071	-0.093231	-0.55573	-0.042725	0.21164	-0.069885	-0.095978	0.00061	-0.01709	-0.14114	-0.79193	0.000763	-0.011902
49.918	0.027924	0.59769	0.043488	-0.02121	0.040436	-0.049133	0.19898	-0.01297	0.021667	0.014038	0.35507	0.002747	-0.15213	-0.039978	0.024261	0.008545	0.029602	1.3773	-0.013428	0.13229	0.088654	-0.48447	0.036011	0.19531	-0.31464	-0.048065	0.54047	-0.039215	0.00885	-1.1243	-0.00824	-0.011597
49.919	0.026855	0.61798	0.034027	-0.012512	0.017242	-0.058441	0.1886	-0.011749	0.026398	-0.015869	0.15243	0.007935	-0.074615	-0.11398	-0.25955	0.014038	0.017853	1.3924	-1.2567	0.14053	0.072632	-0.19134	0.088654	0.046387	-0.34958	-0.011902	0.25971	-0.055695	0.066681	-1.4389	0.000305	-0.020142
